0
SECTION
2
HEADER
9
$INSUNITS
70
4
9
$ACADVER
1
AC1014
9
$HANDSEED
5
FFFF
0
ENDSEC
0
SECTION
2
TABLES
0
TABLE
2
VPORT
5
8
100
AcDbSymbolTable
0
ENDTAB
0
TABLE
2
LTYPE
5
5
100
AcDbSymbolTable
0
LTYPE
5
14
100
AcDbSymbolTableRecord
100
AcDbLinetypeTableRecord
2
BYBLOCK
70
0
0
LTYPE
5
15
100
AcDbSymbolTableRecord
100
AcDbLinetypeTableRecord
2
BYLAYER
70
0
0
ENDTAB
0
TABLE
2
LAYER
5
2
100
AcDbSymbolTable
70
2
0
LAYER
5
50
100
AcDbSymbolTableRecord
100
AcDbLayerTableRecord
2
0
70
0
6
CONTINUOUS
0
ENDTAB
0
TABLE
2
STYLE
5
3
100
AcDbSymbolTable
70
1
0
STYLE
5
11
100
AcDbSymbolTableRecord
100
AcDbTextStyleTableRecord
2
STANDARD
70
0
0
ENDTAB
0
TABLE
2
VIEW
5
6
100
AcDbSymbolTable
70
0
0
ENDTAB
0
TABLE
2
UCS
5
7
100
AcDbSymbolTable
70
0
0
ENDTAB
0
TABLE
2
APPID
5
9
100
AcDbSymbolTable
70
2
0
APPID
5
12
100
AcDbSymbolTableRecord
100
AcDbRegAppTableRecord
2
ACAD
70
0
0
ENDTAB
0
TABLE
2
DIMSTYLE
5
A
100
AcDbSymbolTable
70
1
0
ENDTAB
0
TABLE
2
BLOCK_RECORD
5
1
100
AcDbSymbolTable
70
1
0
BLOCK_RECORD
5
1F
100
AcDbSymbolTableRecord
100
AcDbBlockTableRecord
2
*MODEL_SPACE
0
BLOCK_RECORD
5
1B
100
AcDbSymbolTableRecord
100
AcDbBlockTableRecord
2
*PAPER_SPACE
0
ENDTAB
0
ENDSEC
0
SECTION
2
BLOCKS
0
BLOCK
5
20
100
AcDbEntity
100
AcDbBlockBegin
2
*MODEL_SPACE
0
ENDBLK
5
21
100
AcDbEntity
100
AcDbBlockEnd
0
BLOCK
5
1C
100
AcDbEntity
100
AcDbBlockBegin
2
*PAPER_SPACE
0
ENDBLK
5
1D
100
AcDbEntity
100
AcDbBlockEnd
0
ENDSEC
0
SECTION
2
ENTITIES
0
LINE
5
100
100
AcDbEntity
8
0
100
AcDbLine
10
105.01526728886368
20
17.95281024741864
30
0
11
104.56793146591848
21
14.526762732088176
31
0
0
LINE
5
101
100
AcDbEntity
8
0
100
AcDbLine
10
104.56793146591848
20
14.526762732088176
30
0
11
107.9939789809695
21
14.079426909179389
31
0
0
LINE
5
102
100
AcDbEntity
8
0
100
AcDbLine
10
107.9939789809695
20
14.079426909179389
30
0
11
108.43585946464722
21
17.463693172533056
31
0
0
LINE
5
103
100
AcDbEntity
8
0
100
AcDbLine
10
149.47095641599833
20
10.253872333520171
30
0
11
148.83104264492903
21
6.8585194384287851
31
0
0
LINE
5
104
100
AcDbEntity
8
0
100
AcDbLine
10
148.83104264492903
20
6.8585194384287851
30
0
11
152.22639553952169
21
6.2186056674535575
31
0
0
LINE
5
105
100
AcDbEntity
8
0
100
AcDbLine
10
152.22639553952169
20
6.2186056674535575
30
0
11
152.85059374066282
21
9.5305724765391808
31
0
0
SPLINE
5
106
100
AcDbEntity
8
0
100
AcDbSpline
70
4
71
5
72
26
73
20
74
0
42
0.000000001
43
0.0000000001
44
0.0000000001
40
0
40
0
40
0
40
0
40
0
40
0
40
0.066666666666666666
40
0.13333333333333333
40
0.20000000000000001
40
0.26666666666666666
40
0.33333333333333331
40
0.39999999999999997
40
0.46666666666666662
40
0.53333333333333333
40
0.59999999999999998
40
0.66666666666666663
40
0.73333333333333328
40
0.79999999999999993
40
0.86666666666666659
40
0.93333333333333324
40
1
40
1
40
1
40
1
40
1
40
1
41
1
41
1
41
1
41
1
41
1
41
1
41
1
41
1
41
1
41
1
41
1
41
1
41
1
41
1
41
1
41
1
41
1
41
1
41
1
41
1
10
108.43585946464722
20
17.463693172533056
30
0
10
108.64674505789236
20
17.432993232603597
30
0
10
108.99306944341939
20
17.383068706553402
30
0
10
109.28649914375529
20
17.34256192477806
30
0
10
109.49241622237467
20
17.314155189671883
30
0
10
110.51531329301964
20
17.147879681769581
30
0
10
112.79682355837566
20
16.772228364676998
30
0
10
116.35550709446066
20
16.185740968405085
30
0
10
120.89011915689738
20
15.438627950315562
30
0
10
125.90272221394983
20
14.612434170947761
30
0
10
130.823398179169
20
13.7994400867103
30
0
10
135.13088021132012
20
13.082693942730481
30
0
10
138.46999542856989
20
12.516573784645729
30
0
10
140.78809892308587
20
12.104151280044031
30
0
10
142.43921989881682
20
11.78001248906388
30
0
10
143.98971553275234
20
11.443348950089447
30
0
10
145.64656006885662
20
11.076602249648708
30
0
10
147.35208170139029
20
10.706750122921616
30
0
10
148.72529780482409
20
10.412738829868374
30
0
10
149.47095641599833
20
10.253872333520171
30
0
0
SPLINE
5
107
100
AcDbEntity
8
0
100
AcDbSpline
70
4
71
5
72
26
73
20
74
0
42
0.000000001
43
0.0000000001
44
0.0000000001
40
0
40
0
40
0
40
0
40
0
40
0
40
0.066666666666666666
40
0.13333333333333333
40
0.20000000000000001
40
0.26666666666666666
40
0.33333333333333331
40
0.39999999999999997
40
0.46666666666666662
40
0.53333333333333333
40
0.59999999999999998
40
0.66666666666666663
40
0.73333333333333328
40
0.79999999999999993
40
0.86666666666666659
40
0.93333333333333324
40
1
40
1
40
1
40
1
40
1
40
1
41
1
41
1
41
1
41
1
41
1
41
1
41
1
41
1
41
1
41
1
41
1
41
1
41
1
41
1
41
1
41
1
41
1
41
1
41
1
41
1
10
152.85059374066282
20
9.5305724765391808
30
0
10
153.67542152846266
20
9.3536707234495307
30
0
10
155.19578000543513
20
9.0286567139603324
30
0
10
157.08849187101583
20
8.6274893149501732
30
0
10
158.93600235603162
20
8.2427284955554896
30
0
10
160.66366623571977
20
7.888149020490042
30
0
10
162.44542907596028
20
7.5151343580599388
30
0
10
164.83026487698791
20
6.9979855934643354
30
0
10
168.04365930254986
20
6.2836337999667364
30
0
10
171.95125276783176
20
5.3995644304821422
30
0
10
176.22042880103214
20
4.4166701832940021
30
0
10
180.41927113757222
20
3.4263579183921333
30
0
10
184.13636849599709
20
2.5128964840211143
30
0
10
187.08943999867535
20
1.7283366011329053
30
0
10
189.24669393579126
20
1.0645014428900386
30
0
10
190.94119059756048
20
0.42675384232094327
30
0
10
192.3180773260768
20
-0.16652839048594398
30
0
10
193.566513351852
20
-0.7111494017359965
30
0
10
194.52380283067382
20
-1.1259949569274668
30
0
10
195.03370056989326
20
-1.3463598128766907
30
0
0
LINE
5
108
100
AcDbEntity
8
0
100
AcDbLine
10
128.85884992092218
20
-1.3463598128767085
30
0
11
128.85884992092119
21
2.0297316358343092
31
0
0
LINE
5
109
100
AcDbEntity
8
0
100
AcDbLine
10
128.85884992092119
20
2.0297316358343092
30
0
11
132.31383218456222
21
2.0297316358353514
31
0
0
LINE
5
110
100
AcDbEntity
8
0
100
AcDbLine
10
132.31383218456222
20
2.0297316358353514
30
0
11
132.31381745982924
21
-1.3463598128767085
31
0
0
LINE
5
111
100
AcDbEntity
8
0
100
AcDbLine
10
132.31381745982924
20
-1.3463598128767085
30
0
11
195.03370056989326
21
-1.3463598128766907
31
0
0
LINE
5
112
100
AcDbEntity
8
0
100
AcDbLine
10
3.2970873014028124
20
15.853409533855336
30
0
11
4.4473173123082539
21
12.595360756416326
31
0
0
LINE
5
113
100
AcDbEntity
8
0
100
AcDbLine
10
4.4473173123082539
20
12.595360756416326
30
0
11
7.7053660899203855
21
13.745590767382897
31
0
0
LINE
5
114
100
AcDbEntity
8
0
100
AcDbLine
10
7.7053660899203855
20
13.745590767382897
30
0
11
6.5765334444293524
21
16.943031092071838
31
0
0
CIRCLE
5
115
100
AcDbEntity
8
0
100
AcDbCircle
10
37.912848445147688
20
9.5451954441735349
30
0
40
7.0558653846153856
210
0
220
0
230
1
0
CIRCLE
5
116
100
AcDbEntity
8
0
100
AcDbCircle
10
116.16148117446872
20
7.0362328233138811
30
0
40
4.7014423076923082
210
0
220
0
230
1
0
SPLINE
5
117
100
AcDbEntity
8
0
100
AcDbSpline
70
4
71
5
72
31
73
25
74
0
42
0.000000001
43
0.0000000001
44
0.0000000001
40
0
40
0
40
0
40
0
40
0
40
0
40
0.050000000000000003
40
0.10000000000000001
40
0.15000000000000002
40
0.20000000000000001
40
0.25
40
0.29999999999999999
40
0.34999999999999998
40
0.39999999999999997
40
0.44999999999999996
40
0.49999999999999994
40
0.54999999999999993
40
0.59999999999999998
40
0.65000000000000002
40
0.70000000000000007
40
0.75000000000000011
40
0.80000000000000016
40
0.8500000000000002
40
0.90000000000000024
40
0.95000000000000029
40
1
40
1
40
1
40
1
40
1
40
1
41
1
41
1
41
1
41
1
41
1
41
1
41
1
41
1
41
1
41
1
41
1
41
1
41
1
41
1
41
1
41
1
41
1
41
1
41
1
41
1
41
1
41
1
41
1
41
1
41
1
10
-3.0809765141772645
20
-1.3463598128767083
30
0
10
-3.6016253100652591
20
-1.2535759588739828
30
0
10
-4.5413505969192913
20
-1.0763153214989991
30
0
10
-5.646269241959204
20
-0.83530769540599836
30
0
10
-6.5938403121181066
20
-0.56692309616972902
30
0
10
-7.3290323584632446
20
-0.29526281294158824
30
0
10
-8.0513378694964945
20
0.0088778051589317418
30
0
10
-9.0193548433911221
20
0.57074768603609027
30
0
10
-10.068324926568231
20
1.787350186310992
30
0
10
-10.9642068843886
20
3.2518031222947457
30
0
10
-11.510256187808416
20
4.4866080397547394
30
0
10
-11.577671802575928
20
5.0950934210035301
30
0
10
-11.407043081322934
20
5.6429531301449938
30
0
10
-11.011201417832305
20
6.6067302485800603
30
0
10
-10.130714424312036
20
7.9929571171934395
30
0
10
-8.6021858616417308
20
9.6431218442776547
30
0
10
-6.4034697581155253
20
11.272048815454026
30
0
10
-4.1965103414161806
20
12.571537703580288
30
0
10
-2.7349148210068868
20
13.406121789406365
30
0
10
-1.8315832925329616
20
13.894601948843491
30
0
10
-1.0216219751361426
20
14.266361635211226
30
0
10
0.095515260697443247
20
14.693424696521058
30
0
10
1.4589647724657664
20
15.191648487196401
30
0
10
2.6391954067149266
20
15.617250436622772
30
0
10
3.2970873014028124
20
15.853409533855336
30
0
0
LINE
5
118
100
AcDbEntity
8
0
100
AcDbLine
10
16.568798218197273
20
19.364639677640412
30
0
11
93.568798218246087
21
19.364639677635353
31
0
0
SPLINE
5
119
100
AcDbEntity
8
0
100
AcDbSpline
70
4
71
5
72
21
73
15
74
0
42
0.000000001
43
0.0000000001
44
0.0000000001
40
0
40
0
40
0
40
0
40
0
40
0
40
0.10000000000000001
40
0.20000000000000001
40
0.30000000000000004
40
0.40000000000000002
40
0.5
40
0.59999999999999998
40
0.69999999999999996
40
0.79999999999999993
40
0.89999999999999991
40
1
40
1
40
1
40
1
40
1
40
1
41
1
41
1
41
1
41
1
41
1
41
1
41
1
41
1
41
1
41
1
41
1
41
1
41
1
41
1
41
1
10
93.568798218246087
20
19.364639677635353
30
0
10
93.818778488351143
20
19.338745471893887
30
0
10
94.282868174619892
20
19.290539334556421
30
0
10
94.871398169263088
20
19.228976122066225
30
0
10
95.465801970308974
20
19.165886116416925
30
0
10
96.026302460469495
20
19.104869916751827
30
0
10
96.56697090994173
20
19.044463568371906
30
0
10
97.236796481535762
20
18.967838508209628
30
0
10
98.131541182870677
20
18.862196906559035
30
0
10
99.312993236947619
20
18.71726670290731
30
0
10
100.82142699672113
20
18.524487554884935
30
0
10
102.31175828774715
20
18.326252166501408
30
0
10
103.59730138760867
20
18.150391584728339
30
0
10
104.52999983821834
20
18.020739424185862
30
0
10
105.01526728886368
20
17.95281024741864
30
0
0
SPLINE
5
120
100
AcDbEntity
8
0
100
AcDbSpline
70
4
71
5
72
21
73
15
74
0
42
0.000000001
43
0.0000000001
44
0.0000000001
40
0
40
0
40
0
40
0
40
0
40
0
40
0.10000000000000001
40
0.20000000000000001
40
0.30000000000000004
40
0.40000000000000002
40
0.5
40
0.59999999999999998
40
0.69999999999999996
40
0.79999999999999993
40
0.89999999999999991
40
1
40
1
40
1
40
1
40
1
40
1
41
1
41
1
41
1
41
1
41
1
41
1
41
1
41
1
41
1
41
1
41
1
41
1
41
1
41
1
41
1
10
6.5765334444293524
20
16.943031092071838
30
0
10
6.9078972287679496
20
17.044921482107021
30
0
10
7.5373566284467959
20
17.236414532206457
30
0
10
8.3817465500964268
20
17.486793317967255
30
0
10
9.3156063384406771
20
17.750839679221698
30
0
10
10.208391467342185
20
17.986459269740269
30
0
10
10.89215730647032
20
18.155960168954046
30
0
10
11.450426363938231
20
18.290012290909573
30
0
10
11.986439476753667
20
18.418432880485604
30
0
10
12.626458492399355
20
18.567516288493369
30
0
10
13.504040442433453
20
18.760014070410783
30
0
10
14.496152063771756
20
18.963661670563546
30
0
10
15.44699566036498
20
19.150307174826157
30
0
10
16.178581322818211
20
19.290558511052545
30
0
10
16.568798218197273
20
19.364639677640412
30
0
0
LINE
5
121
100
AcDbEntity
8
0
100
AcDbLine
10
-3.0809765141772645
20
-1.3463598128767083
30
0
11
128.85884992092218
21
-1.3463598128767085
31
0
0
ENDSEC
0
SECTION
2
OBJECTS
0
DICTIONARY
5
C
100
AcDbDictionary
3
ACAD_GROUP
350
D
3
ACAD_MLINESTYLE
350
17
0
DICTIONARY
5
D
100
AcDbDictionary
0
DICTIONARY
5
1A
330
C
100
AcDbDictionary
0
DICTIONARY
5
17
100
AcDbDictionary
0
ENDSEC
0
EOF
