0
SECTION
2
HEADER
9
$INSUNITS
70
4
9
$ACADVER
1
AC1014
9
$HANDSEED
5
FFFF
0
ENDSEC
0
SECTION
2
TABLES
0
TABLE
2
VPORT
5
8
100
AcDbSymbolTable
0
ENDTAB
0
TABLE
2
LTYPE
5
5
100
AcDbSymbolTable
0
LTYPE
5
14
100
AcDbSymbolTableRecord
100
AcDbLinetypeTableRecord
2
BYBLOCK
70
0
0
LTYPE
5
15
100
AcDbSymbolTableRecord
100
AcDbLinetypeTableRecord
2
BYLAYER
70
0
0
ENDTAB
0
TABLE
2
LAYER
5
2
100
AcDbSymbolTable
70
2
0
LAYER
5
50
100
AcDbSymbolTableRecord
100
AcDbLayerTableRecord
2
0
70
0
6
CONTINUOUS
0
ENDTAB
0
TABLE
2
STYLE
5
3
100
AcDbSymbolTable
70
1
0
STYLE
5
11
100
AcDbSymbolTableRecord
100
AcDbTextStyleTableRecord
2
STANDARD
70
0
0
ENDTAB
0
TABLE
2
VIEW
5
6
100
AcDbSymbolTable
70
0
0
ENDTAB
0
TABLE
2
UCS
5
7
100
AcDbSymbolTable
70
0
0
ENDTAB
0
TABLE
2
APPID
5
9
100
AcDbSymbolTable
70
2
0
APPID
5
12
100
AcDbSymbolTableRecord
100
AcDbRegAppTableRecord
2
ACAD
70
0
0
ENDTAB
0
TABLE
2
DIMSTYLE
5
A
100
AcDbSymbolTable
70
1
0
ENDTAB
0
TABLE
2
BLOCK_RECORD
5
1
100
AcDbSymbolTable
70
1
0
BLOCK_RECORD
5
1F
100
AcDbSymbolTableRecord
100
AcDbBlockTableRecord
2
*MODEL_SPACE
0
BLOCK_RECORD
5
1B
100
AcDbSymbolTableRecord
100
AcDbBlockTableRecord
2
*PAPER_SPACE
0
ENDTAB
0
ENDSEC
0
SECTION
2
BLOCKS
0
BLOCK
5
20
100
AcDbEntity
100
AcDbBlockBegin
2
*MODEL_SPACE
0
ENDBLK
5
21
100
AcDbEntity
100
AcDbBlockEnd
0
BLOCK
5
1C
100
AcDbEntity
100
AcDbBlockBegin
2
*PAPER_SPACE
0
ENDBLK
5
1D
100
AcDbEntity
100
AcDbBlockEnd
0
ENDSEC
0
SECTION
2
ENTITIES
0
LINE
5
100
100
AcDbEntity
8
0
100
AcDbLine
10
30.042684330392486
20
12.824637531843763
30
0
11
30.04268433039249
21
10.824637531843766
31
0
0
LINE
5
101
100
AcDbEntity
8
0
100
AcDbLine
10
30.04268433039249
20
10.824637531843766
30
0
11
32.04268433039249
21
10.824637531843766
31
0
0
LINE
5
102
100
AcDbEntity
8
0
100
AcDbLine
10
32.04268433039249
20
10.824637531843766
30
0
11
32.042684330541498
21
12.774951544494137
31
0
0
LINE
5
103
100
AcDbEntity
8
0
100
AcDbLine
10
59.658485253095215
20
10.454929984517696
30
0
11
59.399545036511476
21
8.471763333871424
31
0
0
LINE
5
104
100
AcDbEntity
8
0
100
AcDbLine
10
59.399545036511476
20
8.471763333871424
30
0
11
61.382711687157752
21
8.2128231172876767
31
0
0
LINE
5
105
100
AcDbEntity
8
0
100
AcDbLine
10
61.382711687157752
20
8.2128231172876767
30
0
11
61.638494082387396
21
10.171804701778926
31
0
0
SPLINE
5
106
100
AcDbEntity
8
0
100
AcDbSpline
70
4
71
5
72
26
73
20
74
0
42
0.000000001
43
0.0000000001
44
0.0000000001
40
0.48835498445549552
40
0.48835498445549552
40
0.48835498445549552
40
0.48835498445549552
40
0.48835498445549552
40
0.48835498445549552
40
0.4933333333333329
40
0.50666666666666627
40
0.51999999999999957
40
0.53333333333333288
40
0.54666666666666619
40
0.5599999999999995
40
0.57333333333333281
40
0.58666666666666611
40
0.59999999999999942
40
0.61333333333333273
40
0.62666666666666604
40
0.63999999999999935
40
0.65333333333333266
40
0.66666666666666596
40
0.66749768261044062
40
0.66749768261044062
40
0.66749768261044062
40
0.66749768261044062
40
0.66749768261044062
40
0.66749768261044062
41
1
41
1
41
1
41
1
41
1
41
1
41
1
41
1
41
1
41
1
41
1
41
1
41
1
41
1
41
1
41
1
41
1
41
1
41
1
41
1
10
32.042684330541498
20
12.774951544494137
30
0
10
32.19106097917593
20
12.770715150958132
30
0
10
32.739341558407261
20
12.754681204649522
30
0
10
33.703123543232252
20
12.724033563044353
30
0
10
35.115457704595748
20
12.672575814830623
30
0
10
37.028326691155335
20
12.588783519611198
30
0
10
39.31942120113721
20
12.466032590540019
30
0
10
41.692855391994108
20
12.31441138091969
30
0
10
44.109082660791586
20
12.135433636276501
30
0
10
46.510303935286828
20
11.935042435312209
30
0
10
48.832767823654144
20
11.72150821953406
30
0
10
51.017514457471755
20
11.503701813179145
30
0
10
53.021749869313865
20
11.289220633877431
30
0
10
54.829908727944428
20
11.082583930267704
30
0
10
56.465021710063048
20
10.883377860118637
30
0
10
57.711839434357103
20
10.721765779701926
30
0
10
58.651336465338431
20
10.594834376455553
30
0
10
59.299035889598322
20
10.505216909184183
30
0
10
59.638545766879865
20
10.45772117292724
30
0
10
59.658485253095222
20
10.454929984517698
30
0
0
LINE
5
107
100
AcDbEntity
8
0
100
AcDbLine
10
85.391648532546199
20
5.9984019156344148
30
0
11
85.02123462430535
21
4.0330028374363645
31
0
0
LINE
5
108
100
AcDbEntity
8
0
100
AcDbLine
10
85.02123462430535
20
4.0330028374363645
30
0
11
86.986633702503411
21
3.6625889291955178
31
0
0
LINE
5
109
100
AcDbEntity
8
0
100
AcDbLine
10
86.986633702503411
20
3.6625889291955178
30
0
11
87.347950657819041
21
5.5797199945967391
31
0
0
SPLINE
5
110
100
AcDbEntity
8
0
100
AcDbSpline
70
4
71
5
72
22
73
16
74
0
42
0.000000001
43
0.0000000001
44
0.0000000001
40
0.68319237381904807
40
0.68319237381904807
40
0.68319237381904807
40
0.68319237381904807
40
0.68319237381904807
40
0.68319237381904807
40
0.69333333333333258
40
0.70666666666666589
40
0.7199999999999992
40
0.7333333333333325
40
0.74666666666666581
40
0.75999999999999912
40
0.77333333333333243
40
0.78666666666666574
40
0.79999999999999905
40
0.81333333333333235
40
0.81728251409490493
40
0.81728251409490493
40
0.81728251409490493
40
0.81728251409490493
40
0.81728251409490493
40
0.81728251409490493
41
1
41
1
41
1
41
1
41
1
41
1
41
1
41
1
41
1
41
1
41
1
41
1
41
1
41
1
41
1
41
1
10
61.638494082387396
20
10.171804701778926
30
0
10
61.909654270105236
20
10.132330210676033
30
0
10
62.550534524352408
20
10.038554066145588
30
0
10
63.606725234889403
20
9.8823093205576455
30
0
10
65.166573393749061
20
9.6479184563201432
30
0
10
67.342399164272379
20
9.3130948062944796
30
0
10
69.808072826777789
20
8.9217813634933059
30
0
10
72.386680965612882
20
8.4968064057402319
30
0
10
75.00178013824933
20
8.0459819721839985
30
0
10
77.581815748041365
20
7.5777725676555141
30
0
10
80.072671165300648
20
7.1001721016045947
30
0
10
82.119135727696403
20
6.6870427777607855
30
0
10
83.637407108813989
20
6.3704890294253591
30
0
10
84.676629283246967
20
6.1505955149404716
30
0
10
85.258826496140628
20
6.0267003503944476
30
0
10
85.391648532546185
20
5.9984019156344148
30
0
0
SPLINE
5
111
100
AcDbEntity
8
0
100
AcDbSpline
70
4
71
5
72
24
73
18
74
0
42
0.000000001
43
0.0000000001
44
0.0000000001
40
0.82900018352950411
40
0.82900018352950411
40
0.82900018352950411
40
0.82900018352950411
40
0.82900018352950411
40
0.82900018352950411
40
0.83999999999999897
40
0.85333333333333228
40
0.86666666666666559
40
0.87999999999999889
40
0.8933333333333322
40
0.90666666666666551
40
0.91999999999999882
40
0.93333333333333213
40
0.94666666666666544
40
0.95999999999999874
40
0.97333333333333205
40
0.98666666666666536
40
1
40
1
40
1
40
1
40
1
40
1
41
1
41
1
41
1
41
1
41
1
41
1
41
1
41
1
41
1
41
1
41
1
41
1
41
1
41
1
41
1
41
1
41
1
41
1
10
87.347950657819041
20
5.5797199945967391
30
0
10
87.713464980305758
20
5.5013277224350379
30
0
10
88.52111085437889
20
5.3281276077698827
30
0
10
89.771072090519638
20
5.0607087916293327
30
0
10
91.476041844604907
20
4.6996344472338185
30
0
10
93.672278981824377
20
4.2436542716805548
30
0
10
96.000782689364442
20
3.7668344314981344
30
0
10
98.349820303245039
20
3.2809707615932076
30
0
10
100.66423135243534
20
2.7816970678137749
30
0
10
102.8777624175693
20
2.2664030568799163
30
0
10
104.92490204899721
20
1.7355562078558293
30
0
10
106.75332292069174
20
1.1941763280620239
30
0
10
108.33480595771346
20
0.65295570499868838
30
0
10
109.6801784869423
20
0.13031038107096671
30
0
10
110.59516392106465
20
-0.2560149252299207
30
0
10
111.20706012378619
20
-0.52001078534237721
30
0
10
111.58448413608738
20
-0.68351248893092953
30
0
10
111.76556865465011
20
-0.76213963851566668
30
0
0
LINE
5
112
100
AcDbEntity
8
0
100
AcDbLine
10
73.460336424119944
20
-0.76213963851566668
30
0
11
73.460336424119944
21
1.2378603614843333
31
0
0
LINE
5
113
100
AcDbEntity
8
0
100
AcDbLine
10
73.460336424119944
20
1.2378603614843333
30
0
11
75.460336424119944
21
1.2378603614843333
31
0
0
LINE
5
114
100
AcDbEntity
8
0
100
AcDbLine
10
75.460336424119944
20
1.2378603614843333
30
0
11
75.460336424119944
21
-0.76213963851566668
31
0
0
LINE
5
115
100
AcDbEntity
8
0
100
AcDbLine
10
75.460336424119944
20
-0.76213963851566668
30
0
11
111.76556865465011
21
-0.76213963851566668
31
0
0
LINE
5
116
100
AcDbEntity
8
0
100
AcDbLine
10
10.416987534205655
20
-0.76213963851566602
30
0
11
17.322731330286864
21
-0.76213963851566668
31
0
0
LINE
5
117
100
AcDbEntity
8
0
100
AcDbLine
10
19.322731330286864
20
-0.76213963851566668
30
0
11
73.460336424119944
21
-0.76213963851566668
31
0
0
LINE
5
118
100
AcDbEntity
8
0
100
AcDbLine
10
0.7789450749592518
20
9.2396924656985657
30
0
11
1.4447553967285578
21
7.3537718376165007
31
0
0
LINE
5
119
100
AcDbEntity
8
0
100
AcDbLine
10
1.4447553967285578
20
7.3537718376165007
30
0
11
3.3306760248106269
21
8.0195821593857985
31
0
0
LINE
5
120
100
AcDbEntity
8
0
100
AcDbLine
10
3.3306760248106269
20
8.0195821593857985
30
0
11
2.6772515624133479
21
9.8704196014997354
31
0
0
SPLINE
5
121
100
AcDbEntity
8
0
100
AcDbSpline
70
4
71
5
72
33
73
27
74
0
42
0.000000001
43
0.0000000001
44
0.0000000001
40
0.00087501865315083927
40
0.00087501865315083927
40
0.00087501865315083927
40
0.00087501865315083927
40
0.00087501865315083927
40
0.00087501865315083927
40
0.013333333333333334
40
0.026666666666666668
40
0.040000000000000001
40
0.053333333333333337
40
0.066666666666666666
40
0.080000000000000002
40
0.093333333333333338
40
0.10666666666666667
40
0.12000000000000001
40
0.13333333333333333
40
0.14666666666666667
40
0.16
40
0.17333333333333334
40
0.18666666666666668
40
0.20000000000000001
40
0.21333333333333335
40
0.22666666666666668
40
0.24000000000000002
40
0.25333333333333335
40
0.26666666666666666
40
0.27999999999999997
40
0.2850031945715536
40
0.2850031945715536
40
0.2850031945715536
40
0.2850031945715536
40
0.2850031945715536
40
0.2850031945715536
41
1
41
1
41
1
41
1
41
1
41
1
41
1
41
1
41
1
41
1
41
1
41
1
41
1
41
1
41
1
41
1
41
1
41
1
41
1
41
1
41
1
41
1
41
1
41
1
41
1
41
1
41
1
10
10.25287750045168
20
-0.75442775958556219
30
0
10
10.020907846966109
20
-0.73257801660644684
30
0
10
9.5310396368768071
20
-0.68896873051615137
30
0
10
8.757664731865022
20
-0.6279177503812603
30
0
10
7.6592179708585029
20
-0.55641579327260304
30
0
10
6.1818874311513774
20
-0.48233856059511387
30
0
10
4.5943708998195216
20
-0.41750935776830894
30
0
10
2.9405709861597535
20
-0.35134374114304512
30
0
10
1.2616488961262671
20
-0.26418102781089631
30
0
10
-0.3915222060725505
20
-0.13310357516204507
30
0
10
-1.9675170730125076
20
0.061967087862718706
30
0
10
-3.4215731472813529
20
0.33352287482250359
30
0
10
-4.7265465505679733
20
0.67903020746191611
30
0
10
-5.872430390303979
20
1.0817734017496263
30
0
10
-6.8412533284615682
20
1.5295213162794672
30
0
10
-7.5889693141503267
20
2.0281673019975597
30
0
10
-8.0198876128991046
20
2.620688495601518
30
0
10
-8.0308567437696166
20
3.3550604257902945
30
0
10
-7.5811489079328513
20
4.2323366700137379
30
0
10
-6.6966158419534487
20
5.206756535332576
30
0
10
-5.4368136684391395
20
6.2149101810517573
30
0
10
-3.8696508950995252
20
7.1998186210250781
30
0
10
-2.2811323891679276
20
8.0098065846632736
30
0
10
-0.94563611770833367
20
8.5882323034381329
30
0
10
0.0375614748163388
20
8.9700158518361697
30
0
10
0.61932031746017135
20
9.1823930234472311
30
0
10
0.7789450749592608
20
9.2396924656985711
30
0
0
SPLINE
5
122
100
AcDbEntity
8
0
100
AcDbSpline
70
4
71
5
72
25
73
19
74
0
42
0.000000001
43
0.0000000001
44
0.0000000001
40
0.29663340114085723
40
0.29663340114085723
40
0.29663340114085723
40
0.29663340114085723
40
0.29663340114085723
40
0.29663340114085723
40
0.30666666666666659
40
0.3199999999999999
40
0.3333333333333332
40
0.34666666666666651
40
0.35999999999999982
40
0.37333333333333313
40
0.38666666666666644
40
0.39999999999999974
40
0.41333333333333305
40
0.42666666666666636
40
0.43999999999999967
40
0.45333333333333298
40
0.46666666666666629
40
0.47460649714185515
40
0.47460649714185515
40
0.47460649714185515
40
0.47460649714185515
40
0.47460649714185515
40
0.47460649714185515
41
1
41
1
41
1
41
1
41
1
41
1
41
1
41
1
41
1
41
1
41
1
41
1
41
1
41
1
41
1
41
1
41
1
41
1
41
1
10
2.6772515624133479
20
9.8704196014997354
30
0
10
3.0113499985300018
20
9.9731508641609476
30
0
10
3.7951911416256556
20
10.206294170371827
30
0
10
5.0447412884424221
20
10.550231335292171
30
0
10
6.7750975961711539
20
10.972509278532016
30
0
10
8.9805615387348521
20
11.430640419911795
30
0
10
11.280380170150883
20
11.831322550063419
30
0
10
13.528841511057248
20
12.155921442843919
30
0
10
15.70202021533113
20
12.410171002672065
30
0
10
17.784766814862316
20
12.600520321832498
30
0
10
19.772254801969741
20
12.734200525561983
30
0
10
21.672157047899148
20
12.819447721070274
30
0
10
23.50500241856809
20
12.86535647473055
30
0
10
25.299728597619332
20
12.880817168836247
30
0
10
26.945281980324054
20
12.874191916640427
30
0
10
28.25243700340614
20
12.858057711578867
30
0
10
29.215609298865868
20
12.841485057507649
30
0
10
29.816895781857212
20
12.829411072648869
30
0
10
30.04268433039249
20
12.824637531843763
30
0
0
CIRCLE
5
123
100
AcDbEntity
8
0
100
AcDbCircle
10
20.805226575711163
20
5.9981303962528081
30
0
40
4.7649999999999997
210
0
220
0
230
1
0
ARC
5
124
100
AcDbEntity
8
0
100
AcDbCircle
10
10.416987534205655
20
0.98786036148433398
30
0
40
1.75
210
0
220
0
230
1
100
AcDbArc
50
264.61905784914347
51
270
0
CIRCLE
5
125
100
AcDbEntity
8
0
100
AcDbCircle
10
66.110468058872783
20
4.1358721805949852
30
0
40
3.174999999999998
210
0
220
0
230
1
0
LINE
5
126
100
AcDbEntity
8
0
100
AcDbLine
10
17.322731330286864
20
-0.76213963851566668
30
0
11
19.322731330286864
21
-0.76213963851566668
31
0
0
ENDSEC
0
SECTION
2
OBJECTS
0
DICTIONARY
5
C
100
AcDbDictionary
3
ACAD_GROUP
350
D
3
ACAD_MLINESTYLE
350
17
0
DICTIONARY
5
D
100
AcDbDictionary
0
DICTIONARY
5
1A
330
C
100
AcDbDictionary
0
DICTIONARY
5
17
100
AcDbDictionary
0
ENDSEC
0
EOF
