0
SECTION
2
HEADER
9
$INSUNITS
70
4
9
$ACADVER
1
AC1014
9
$HANDSEED
5
FFFF
0
ENDSEC
0
SECTION
2
TABLES
0
TABLE
2
VPORT
5
8
100
AcDbSymbolTable
0
ENDTAB
0
TABLE
2
LTYPE
5
5
100
AcDbSymbolTable
0
LTYPE
5
14
100
AcDbSymbolTableRecord
100
AcDbLinetypeTableRecord
2
BYBLOCK
70
0
0
LTYPE
5
15
100
AcDbSymbolTableRecord
100
AcDbLinetypeTableRecord
2
BYLAYER
70
0
0
ENDTAB
0
TABLE
2
LAYER
5
2
100
AcDbSymbolTable
70
2
0
LAYER
5
50
100
AcDbSymbolTableRecord
100
AcDbLayerTableRecord
2
0
70
0
6
CONTINUOUS
0
ENDTAB
0
TABLE
2
STYLE
5
3
100
AcDbSymbolTable
70
1
0
STYLE
5
11
100
AcDbSymbolTableRecord
100
AcDbTextStyleTableRecord
2
STANDARD
70
0
0
ENDTAB
0
TABLE
2
VIEW
5
6
100
AcDbSymbolTable
70
0
0
ENDTAB
0
TABLE
2
UCS
5
7
100
AcDbSymbolTable
70
0
0
ENDTAB
0
TABLE
2
APPID
5
9
100
AcDbSymbolTable
70
2
0
APPID
5
12
100
AcDbSymbolTableRecord
100
AcDbRegAppTableRecord
2
ACAD
70
0
0
ENDTAB
0
TABLE
2
DIMSTYLE
5
A
100
AcDbSymbolTable
70
1
0
ENDTAB
0
TABLE
2
BLOCK_RECORD
5
1
100
AcDbSymbolTable
70
1
0
BLOCK_RECORD
5
1F
100
AcDbSymbolTableRecord
100
AcDbBlockTableRecord
2
*MODEL_SPACE
0
BLOCK_RECORD
5
1B
100
AcDbSymbolTableRecord
100
AcDbBlockTableRecord
2
*PAPER_SPACE
0
ENDTAB
0
ENDSEC
0
SECTION
2
BLOCKS
0
BLOCK
5
20
100
AcDbEntity
100
AcDbBlockBegin
2
*MODEL_SPACE
0
ENDBLK
5
21
100
AcDbEntity
100
AcDbBlockEnd
0
BLOCK
5
1C
100
AcDbEntity
100
AcDbBlockBegin
2
*PAPER_SPACE
0
ENDBLK
5
1D
100
AcDbEntity
100
AcDbBlockEnd
0
ENDSEC
0
SECTION
2
ENTITIES
0
LWPOLYLINE
5
100
100
AcDbEntity
8
0
100
AcDbPolyline
90
8
70
1
43
0.0
10
4.5000000000000009
20
-24.5
10
4.5000000000000009
20
24.5
10
1.5000000000000002
20
24.500000000000007
10
1.5000000000000002
20
27.500000000000004
10
-1.5000000000000002
20
27.500000000000004
10
-1.5000000000000002
20
-27.500000000000004
10
1.5000000000000002
20
-27.500000000000004
10
1.5000000000000002
20
-24.5
0
LWPOLYLINE
5
101
100
AcDbEntity
8
0
100
AcDbPolyline
90
8
70
1
43
0.0
10
37.833333333333336
20
31.500000000000004
10
37.833333333333336
20
80.5
10
34.833333333333336
20
80.5
10
34.833333333333336
20
83.500000000000014
10
31.833333333333336
20
83.500000000000014
10
31.833333333333336
20
28.5
10
34.833333333333336
20
28.5
10
34.833333333333336
20
31.500000000000004
0
LWPOLYLINE
5
102
100
AcDbEntity
8
0
100
AcDbPolyline
90
8
70
1
43
0.0
10
12.833333333333334
20
-24.5
10
12.833333333333334
20
24.5
10
9.8333333333333339
20
24.500000000000007
10
9.8333333333333339
20
27.500000000000004
10
6.8333333333333339
20
27.500000000000004
10
6.8333333333333339
20
-27.500000000000004
10
9.8333333333333339
20
-27.500000000000004
10
9.8333333333333339
20
-24.5
0
LWPOLYLINE
5
103
100
AcDbEntity
8
0
100
AcDbPolyline
90
8
70
1
43
0.0
10
46.166666666666671
20
-24.5
10
46.166666666666671
20
24.5
10
43.166666666666671
20
24.500000000000007
10
43.166666666666671
20
27.500000000000004
10
40.166666666666664
20
27.500000000000004
10
40.166666666666664
20
-27.500000000000004
10
43.166666666666671
20
-27.500000000000004
10
43.166666666666671
20
-24.5
0
LWPOLYLINE
5
104
100
AcDbEntity
8
0
100
AcDbPolyline
90
8
70
1
43
0.0
10
21.166666666666668
20
-24.5
10
21.166666666666668
20
24.5
10
18.166666666666668
20
24.500000000000007
10
18.166666666666668
20
27.500000000000004
10
15.166666666666666
20
27.500000000000004
10
15.166666666666666
20
-27.500000000000004
10
18.166666666666668
20
-27.500000000000004
10
18.166666666666668
20
-24.5
0
LWPOLYLINE
5
105
100
AcDbEntity
8
0
100
AcDbPolyline
90
8
70
1
43
0.0
10
54.5
20
-24.5
10
54.5
20
24.5
10
51.5
20
24.500000000000007
10
51.5
20
27.500000000000004
10
48.5
20
27.500000000000004
10
48.5
20
-27.500000000000004
10
51.5
20
-27.500000000000004
10
51.5
20
-24.5
0
LWPOLYLINE
5
106
100
AcDbEntity
8
0
100
AcDbPolyline
90
8
70
1
43
0.0
10
62.833333333333343
20
-24.5
10
62.833333333333343
20
24.5
10
59.833333333333343
20
24.500000000000007
10
59.833333333333343
20
27.500000000000004
10
56.833333333333336
20
27.500000000000004
10
56.833333333333336
20
-27.500000000000004
10
59.833333333333343
20
-27.500000000000004
10
59.833333333333343
20
-24.5
0
LWPOLYLINE
5
107
100
AcDbEntity
8
0
100
AcDbPolyline
90
8
70
1
43
0.0
10
71.166666666666671
20
-24.5
10
71.166666666666671
20
24.5
10
68.166666666666671
20
24.500000000000007
10
68.166666666666671
20
27.500000000000004
10
65.166666666666671
20
27.500000000000004
10
65.166666666666671
20
-27.500000000000004
10
68.166666666666671
20
-27.500000000000004
10
68.166666666666671
20
-24.5
0
LWPOLYLINE
5
108
100
AcDbEntity
8
0
100
AcDbPolyline
90
8
70
1
43
0.0
10
129.5
20
-80.5
10
129.5
20
-31.500000000000004
10
126.5
20
-31.500000000000004
10
126.5
20
-28.5
10
123.5
20
-28.5
10
123.5
20
-83.500000000000014
10
126.5
20
-83.500000000000014
10
126.5
20
-80.5
0
LWPOLYLINE
5
109
100
AcDbEntity
8
0
100
AcDbPolyline
90
8
70
1
43
0.0
10
29.5
20
-24.5
10
29.5
20
24.5
10
26.5
20
24.500000000000007
10
26.5
20
27.500000000000004
10
23.5
20
27.500000000000004
10
23.5
20
-27.500000000000004
10
26.5
20
-27.500000000000004
10
26.5
20
-24.5
0
LWPOLYLINE
5
110
100
AcDbEntity
8
0
100
AcDbPolyline
90
8
70
1
43
0.0
10
37.833333333333336
20
-24.5
10
37.833333333333336
20
24.5
10
34.833333333333336
20
24.500000000000007
10
34.833333333333336
20
27.500000000000004
10
31.833333333333336
20
27.500000000000004
10
31.833333333333336
20
-27.500000000000004
10
34.833333333333336
20
-27.500000000000004
10
34.833333333333336
20
-24.5
0
LWPOLYLINE
5
111
100
AcDbEntity
8
0
100
AcDbPolyline
90
8
70
1
43
0.0
10
79.5
20
31.500000000000004
10
79.5
20
80.5
10
76.5
20
80.5
10
76.5
20
83.500000000000014
10
73.5
20
83.500000000000014
10
73.5
20
28.5
10
76.5
20
28.5
10
76.5
20
31.500000000000004
0
LWPOLYLINE
5
112
100
AcDbEntity
8
0
100
AcDbPolyline
90
8
70
1
43
0.0
10
112.83333333333333
20
31.500000000000004
10
112.83333333333333
20
80.5
10
109.83333333333334
20
80.5
10
109.83333333333334
20
83.500000000000014
10
106.83333333333334
20
83.500000000000014
10
106.83333333333334
20
28.5
10
109.83333333333334
20
28.5
10
109.83333333333334
20
31.500000000000004
0
LWPOLYLINE
5
113
100
AcDbEntity
8
0
100
AcDbPolyline
90
8
70
1
43
0.0
10
46.166666666666671
20
31.500000000000004
10
46.166666666666671
20
80.5
10
43.166666666666671
20
80.5
10
43.166666666666671
20
83.500000000000014
10
40.166666666666664
20
83.500000000000014
10
40.166666666666664
20
28.5
10
43.166666666666671
20
28.5
10
43.166666666666671
20
31.500000000000004
0
LWPOLYLINE
5
114
100
AcDbEntity
8
0
100
AcDbPolyline
90
8
70
1
43
0.0
10
71.166666666666671
20
31.500000000000004
10
71.166666666666671
20
80.5
10
68.166666666666671
20
80.5
10
68.166666666666671
20
83.500000000000014
10
65.166666666666671
20
83.500000000000014
10
65.166666666666671
20
28.5
10
68.166666666666671
20
28.5
10
68.166666666666671
20
31.500000000000004
0
LWPOLYLINE
5
115
100
AcDbEntity
8
0
100
AcDbPolyline
90
8
70
1
43
0.0
10
54.5
20
31.500000000000004
10
54.5
20
80.5
10
51.5
20
80.5
10
51.5
20
83.500000000000014
10
48.5
20
83.500000000000014
10
48.5
20
28.5
10
51.5
20
28.5
10
51.5
20
31.500000000000004
0
LWPOLYLINE
5
116
100
AcDbEntity
8
0
100
AcDbPolyline
90
8
70
1
43
0.0
10
62.833333333333343
20
31.500000000000004
10
62.833333333333343
20
80.5
10
59.833333333333343
20
80.5
10
59.833333333333343
20
83.500000000000014
10
56.833333333333336
20
83.500000000000014
10
56.833333333333336
20
28.5
10
59.833333333333343
20
28.5
10
59.833333333333343
20
31.500000000000004
0
LWPOLYLINE
5
117
100
AcDbEntity
8
0
100
AcDbPolyline
90
8
70
1
43
0.0
10
96.166666666666671
20
31.500000000000004
10
96.166666666666671
20
80.5
10
93.166666666666686
20
80.5
10
93.166666666666686
20
83.500000000000014
10
90.166666666666671
20
83.500000000000014
10
90.166666666666671
20
28.5
10
93.166666666666686
20
28.5
10
93.166666666666686
20
31.500000000000004
0
LWPOLYLINE
5
118
100
AcDbEntity
8
0
100
AcDbPolyline
90
8
70
1
43
0.0
10
87.833333333333329
20
31.500000000000004
10
87.833333333333329
20
80.5
10
84.833333333333343
20
80.5
10
84.833333333333343
20
83.500000000000014
10
81.833333333333343
20
83.500000000000014
10
81.833333333333343
20
28.5
10
84.833333333333343
20
28.5
10
84.833333333333343
20
31.500000000000004
0
LWPOLYLINE
5
119
100
AcDbEntity
8
0
100
AcDbPolyline
90
8
70
1
43
0.0
10
104.5
20
31.500000000000004
10
104.5
20
80.5
10
101.5
20
80.5
10
101.5
20
83.500000000000014
10
98.5
20
83.500000000000014
10
98.5
20
28.5
10
101.5
20
28.5
10
101.5
20
31.500000000000004
0
LWPOLYLINE
5
120
100
AcDbEntity
8
0
100
AcDbPolyline
90
8
70
1
43
0.0
10
121.16666666666667
20
31.500000000000004
10
121.16666666666667
20
80.5
10
118.16666666666669
20
80.5
10
118.16666666666669
20
83.500000000000014
10
115.16666666666667
20
83.500000000000014
10
115.16666666666667
20
28.5
10
118.16666666666669
20
28.5
10
118.16666666666669
20
31.500000000000004
0
LWPOLYLINE
5
121
100
AcDbEntity
8
0
100
AcDbPolyline
90
8
70
1
43
0.0
10
21.166666666666668
20
-80.5
10
21.166666666666668
20
-31.500000000000004
10
18.166666666666668
20
-31.500000000000004
10
18.166666666666668
20
-28.5
10
15.166666666666666
20
-28.5
10
15.166666666666666
20
-83.500000000000014
10
18.166666666666668
20
-83.500000000000014
10
18.166666666666668
20
-80.5
0
LWPOLYLINE
5
122
100
AcDbEntity
8
0
100
AcDbPolyline
90
8
70
1
43
0.0
10
29.5
20
-80.5
10
29.5
20
-31.500000000000004
10
26.5
20
-31.500000000000004
10
26.5
20
-28.5
10
23.5
20
-28.5
10
23.5
20
-83.500000000000014
10
26.5
20
-83.500000000000014
10
26.5
20
-80.5
0
LWPOLYLINE
5
123
100
AcDbEntity
8
0
100
AcDbPolyline
90
8
70
1
43
0.0
10
79.5
20
-80.5
10
79.5
20
-31.500000000000004
10
76.5
20
-31.500000000000004
10
76.5
20
-28.5
10
73.5
20
-28.5
10
73.5
20
-83.500000000000014
10
76.5
20
-83.500000000000014
10
76.5
20
-80.5
0
LWPOLYLINE
5
124
100
AcDbEntity
8
0
100
AcDbPolyline
90
8
70
1
43
0.0
10
37.833333333333336
20
-80.5
10
37.833333333333336
20
-31.500000000000004
10
34.833333333333336
20
-31.500000000000004
10
34.833333333333336
20
-28.5
10
31.833333333333336
20
-28.5
10
31.833333333333336
20
-83.500000000000014
10
34.833333333333336
20
-83.500000000000014
10
34.833333333333336
20
-80.5
0
LWPOLYLINE
5
125
100
AcDbEntity
8
0
100
AcDbPolyline
90
8
70
1
43
0.0
10
87.833333333333329
20
-80.5
10
87.833333333333329
20
-31.500000000000004
10
84.833333333333343
20
-31.500000000000004
10
84.833333333333343
20
-28.5
10
81.833333333333343
20
-28.5
10
81.833333333333343
20
-83.500000000000014
10
84.833333333333343
20
-83.500000000000014
10
84.833333333333343
20
-80.5
0
LWPOLYLINE
5
126
100
AcDbEntity
8
0
100
AcDbPolyline
90
8
70
1
43
0.0
10
54.5
20
-80.5
10
54.5
20
-31.500000000000004
10
51.5
20
-31.500000000000004
10
51.5
20
-28.5
10
48.5
20
-28.5
10
48.5
20
-83.500000000000014
10
51.5
20
-83.500000000000014
10
51.5
20
-80.5
0
LWPOLYLINE
5
127
100
AcDbEntity
8
0
100
AcDbPolyline
90
8
70
1
43
0.0
10
46.166666666666671
20
-80.5
10
46.166666666666671
20
-31.500000000000004
10
43.166666666666671
20
-31.500000000000004
10
43.166666666666671
20
-28.5
10
40.166666666666664
20
-28.5
10
40.166666666666664
20
-83.500000000000014
10
43.166666666666671
20
-83.500000000000014
10
43.166666666666671
20
-80.5
0
LWPOLYLINE
5
128
100
AcDbEntity
8
0
100
AcDbPolyline
90
8
70
1
43
0.0
10
96.166666666666671
20
-80.5
10
96.166666666666671
20
-31.500000000000004
10
93.166666666666686
20
-31.500000000000004
10
93.166666666666686
20
-28.5
10
90.166666666666671
20
-28.5
10
90.166666666666671
20
-83.500000000000014
10
93.166666666666686
20
-83.500000000000014
10
93.166666666666686
20
-80.5
0
LWPOLYLINE
5
129
100
AcDbEntity
8
0
100
AcDbPolyline
90
8
70
1
43
0.0
10
104.5
20
-80.5
10
104.5
20
-31.500000000000004
10
101.5
20
-31.500000000000004
10
101.5
20
-28.5
10
98.5
20
-28.5
10
98.5
20
-83.500000000000014
10
101.5
20
-83.500000000000014
10
101.5
20
-80.5
0
LWPOLYLINE
5
130
100
AcDbEntity
8
0
100
AcDbPolyline
90
8
70
1
43
0.0
10
112.83333333333333
20
-80.5
10
112.83333333333333
20
-31.500000000000004
10
109.83333333333334
20
-31.500000000000004
10
109.83333333333334
20
-28.5
10
106.83333333333334
20
-28.5
10
106.83333333333334
20
-83.500000000000014
10
109.83333333333334
20
-83.500000000000014
10
109.83333333333334
20
-80.5
0
LWPOLYLINE
5
131
100
AcDbEntity
8
0
100
AcDbPolyline
90
8
70
1
43
0.0
10
121.16666666666667
20
-80.5
10
121.16666666666667
20
-31.500000000000004
10
118.16666666666669
20
-31.500000000000004
10
118.16666666666669
20
-28.5
10
115.16666666666667
20
-28.5
10
115.16666666666667
20
-83.500000000000014
10
118.16666666666669
20
-83.500000000000014
10
118.16666666666669
20
-80.5
0
LWPOLYLINE
5
132
100
AcDbEntity
8
0
100
AcDbPolyline
90
8
70
1
43
0.0
10
62.833333333333343
20
-80.5
10
62.833333333333343
20
-31.500000000000004
10
59.833333333333343
20
-31.500000000000004
10
59.833333333333343
20
-28.5
10
56.833333333333336
20
-28.5
10
56.833333333333336
20
-83.500000000000014
10
59.833333333333343
20
-83.500000000000014
10
59.833333333333343
20
-80.5
0
LWPOLYLINE
5
133
100
AcDbEntity
8
0
100
AcDbPolyline
90
8
70
1
43
0.0
10
71.166666666666671
20
-80.5
10
71.166666666666671
20
-31.500000000000004
10
68.166666666666671
20
-31.500000000000004
10
68.166666666666671
20
-28.5
10
65.166666666666671
20
-28.5
10
65.166666666666671
20
-83.500000000000014
10
68.166666666666671
20
-83.500000000000014
10
68.166666666666671
20
-80.5
0
LWPOLYLINE
5
134
100
AcDbEntity
8
0
100
AcDbPolyline
90
8
70
1
43
0.0
10
12.833333333333334
20
-80.5
10
12.833333333333334
20
-31.500000000000004
10
9.8333333333333339
20
-31.500000000000004
10
9.8333333333333339
20
-28.5
10
6.8333333333333339
20
-28.5
10
6.8333333333333339
20
-83.500000000000014
10
9.8333333333333339
20
-83.500000000000014
10
9.8333333333333339
20
-80.5
0
LWPOLYLINE
5
135
100
AcDbEntity
8
0
100
AcDbPolyline
90
8
70
1
43
0.0
10
4.5000000000000009
20
-80.5
10
4.5000000000000009
20
-31.500000000000004
10
1.5000000000000002
20
-31.500000000000004
10
1.5000000000000002
20
-28.5
10
-1.5000000000000002
20
-28.5
10
-1.5000000000000002
20
-83.500000000000014
10
1.5000000000000002
20
-83.500000000000014
10
1.5000000000000002
20
-80.5
0
LWPOLYLINE
5
136
100
AcDbEntity
8
0
100
AcDbPolyline
90
8
70
1
43
0.0
10
112.83333333333333
20
87.5
10
112.83333333333333
20
136.5
10
109.83333333333334
20
136.50000000000003
10
109.83333333333334
20
139.5
10
106.83333333333334
20
139.5
10
106.83333333333334
20
84.500000000000014
10
109.83333333333334
20
84.500000000000014
10
109.83333333333334
20
87.5
0
LWPOLYLINE
5
137
100
AcDbEntity
8
0
100
AcDbPolyline
90
8
70
1
43
0.0
10
79.5
20
87.5
10
79.5
20
136.5
10
76.5
20
136.50000000000003
10
76.5
20
139.5
10
73.5
20
139.5
10
73.5
20
84.500000000000014
10
76.5
20
84.500000000000014
10
76.5
20
87.5
0
LWPOLYLINE
5
138
100
AcDbEntity
8
0
100
AcDbPolyline
90
8
70
1
43
0.0
10
129.5
20
87.5
10
129.5
20
136.5
10
126.5
20
136.50000000000003
10
126.5
20
139.5
10
123.5
20
139.5
10
123.5
20
84.500000000000014
10
126.5
20
84.500000000000014
10
126.5
20
87.5
0
LWPOLYLINE
5
139
100
AcDbEntity
8
0
100
AcDbPolyline
90
8
70
1
43
0.0
10
104.5
20
87.5
10
104.5
20
136.5
10
101.5
20
136.50000000000003
10
101.5
20
139.5
10
98.5
20
139.5
10
98.5
20
84.500000000000014
10
101.5
20
84.500000000000014
10
101.5
20
87.5
0
LWPOLYLINE
5
140
100
AcDbEntity
8
0
100
AcDbPolyline
90
8
70
1
43
0.0
10
121.16666666666667
20
87.5
10
121.16666666666667
20
136.5
10
118.16666666666669
20
136.50000000000003
10
118.16666666666669
20
139.5
10
115.16666666666667
20
139.5
10
115.16666666666667
20
84.500000000000014
10
118.16666666666669
20
84.500000000000014
10
118.16666666666669
20
87.5
0
LWPOLYLINE
5
141
100
AcDbEntity
8
0
100
AcDbPolyline
90
8
70
1
43
0.0
10
96.166666666666671
20
87.5
10
96.166666666666671
20
136.5
10
93.166666666666686
20
136.50000000000003
10
93.166666666666686
20
139.5
10
90.166666666666671
20
139.5
10
90.166666666666671
20
84.500000000000014
10
93.166666666666686
20
84.500000000000014
10
93.166666666666686
20
87.5
0
LWPOLYLINE
5
142
100
AcDbEntity
8
0
100
AcDbPolyline
90
8
70
1
43
0.0
10
87.833333333333329
20
87.5
10
87.833333333333329
20
136.5
10
84.833333333333343
20
136.50000000000003
10
84.833333333333343
20
139.5
10
81.833333333333343
20
139.5
10
81.833333333333343
20
84.500000000000014
10
84.833333333333343
20
84.500000000000014
10
84.833333333333343
20
87.5
0
LWPOLYLINE
5
143
100
AcDbEntity
8
0
100
AcDbPolyline
90
8
70
1
43
0.0
10
4.5000000000000009
20
87.5
10
4.5000000000000009
20
136.5
10
1.5000000000000002
20
136.50000000000003
10
1.5000000000000002
20
139.5
10
-1.5000000000000002
20
139.5
10
-1.5000000000000002
20
84.500000000000014
10
1.5000000000000002
20
84.500000000000014
10
1.5000000000000002
20
87.5
0
LWPOLYLINE
5
144
100
AcDbEntity
8
0
100
AcDbPolyline
90
8
70
1
43
0.0
10
29.5
20
87.5
10
29.5
20
136.5
10
26.5
20
136.50000000000003
10
26.5
20
139.5
10
23.5
20
139.5
10
23.5
20
84.500000000000014
10
26.5
20
84.500000000000014
10
26.5
20
87.5
0
LWPOLYLINE
5
145
100
AcDbEntity
8
0
100
AcDbPolyline
90
8
70
1
43
0.0
10
129.5
20
31.500000000000004
10
129.5
20
80.5
10
126.5
20
80.5
10
126.5
20
83.500000000000014
10
123.5
20
83.500000000000014
10
123.5
20
28.5
10
126.5
20
28.5
10
126.5
20
31.500000000000004
0
LWPOLYLINE
5
146
100
AcDbEntity
8
0
100
AcDbPolyline
90
8
70
1
43
0.0
10
21.166666666666668
20
87.5
10
21.166666666666668
20
136.5
10
18.166666666666668
20
136.50000000000003
10
18.166666666666668
20
139.5
10
15.166666666666666
20
139.5
10
15.166666666666666
20
84.500000000000014
10
18.166666666666668
20
84.500000000000014
10
18.166666666666668
20
87.5
0
LWPOLYLINE
5
147
100
AcDbEntity
8
0
100
AcDbPolyline
90
8
70
1
43
0.0
10
37.833333333333336
20
87.5
10
37.833333333333336
20
136.5
10
34.833333333333336
20
136.50000000000003
10
34.833333333333336
20
139.5
10
31.833333333333336
20
139.5
10
31.833333333333336
20
84.500000000000014
10
34.833333333333336
20
84.500000000000014
10
34.833333333333336
20
87.5
0
LWPOLYLINE
5
148
100
AcDbEntity
8
0
100
AcDbPolyline
90
8
70
1
43
0.0
10
54.5
20
87.5
10
54.5
20
136.5
10
51.5
20
136.50000000000003
10
51.5
20
139.5
10
48.5
20
139.5
10
48.5
20
84.500000000000014
10
51.5
20
84.500000000000014
10
51.5
20
87.5
0
LWPOLYLINE
5
149
100
AcDbEntity
8
0
100
AcDbPolyline
90
8
70
1
43
0.0
10
12.833333333333334
20
87.5
10
12.833333333333334
20
136.5
10
9.8333333333333339
20
136.50000000000003
10
9.8333333333333339
20
139.5
10
6.8333333333333339
20
139.5
10
6.8333333333333339
20
84.500000000000014
10
9.8333333333333339
20
84.500000000000014
10
9.8333333333333339
20
87.5
0
LWPOLYLINE
5
150
100
AcDbEntity
8
0
100
AcDbPolyline
90
8
70
1
43
0.0
10
46.166666666666671
20
87.5
10
46.166666666666671
20
136.5
10
43.166666666666671
20
136.50000000000003
10
43.166666666666671
20
139.5
10
40.166666666666664
20
139.5
10
40.166666666666664
20
84.500000000000014
10
43.166666666666671
20
84.500000000000014
10
43.166666666666671
20
87.5
0
LWPOLYLINE
5
151
100
AcDbEntity
8
0
100
AcDbPolyline
90
8
70
1
43
0.0
10
62.833333333333343
20
87.5
10
62.833333333333343
20
136.5
10
59.833333333333343
20
136.50000000000003
10
59.833333333333343
20
139.5
10
56.833333333333336
20
139.5
10
56.833333333333336
20
84.500000000000014
10
59.833333333333343
20
84.500000000000014
10
59.833333333333343
20
87.5
0
LWPOLYLINE
5
152
100
AcDbEntity
8
0
100
AcDbPolyline
90
8
70
1
43
0.0
10
71.166666666666671
20
87.5
10
71.166666666666671
20
136.5
10
68.166666666666671
20
136.50000000000003
10
68.166666666666671
20
139.5
10
65.166666666666671
20
139.5
10
65.166666666666671
20
84.500000000000014
10
68.166666666666671
20
84.500000000000014
10
68.166666666666671
20
87.5
0
LWPOLYLINE
5
153
100
AcDbEntity
8
0
100
AcDbPolyline
90
8
70
1
43
0.0
10
96.166666666666671
20
-24.5
10
96.166666666666671
20
24.5
10
93.166666666666686
20
24.500000000000007
10
93.166666666666686
20
27.500000000000004
10
90.166666666666671
20
27.500000000000004
10
90.166666666666671
20
-27.500000000000004
10
93.166666666666686
20
-27.500000000000004
10
93.166666666666686
20
-24.5
0
LWPOLYLINE
5
154
100
AcDbEntity
8
0
100
AcDbPolyline
90
8
70
1
43
0.0
10
112.83333333333333
20
-24.5
10
112.83333333333333
20
24.5
10
109.83333333333334
20
24.500000000000007
10
109.83333333333334
20
27.500000000000004
10
106.83333333333334
20
27.500000000000004
10
106.83333333333334
20
-27.500000000000004
10
109.83333333333334
20
-27.500000000000004
10
109.83333333333334
20
-24.5
0
LWPOLYLINE
5
155
100
AcDbEntity
8
0
100
AcDbPolyline
90
8
70
1
43
0.0
10
79.5
20
-24.5
10
79.5
20
24.5
10
76.5
20
24.500000000000007
10
76.5
20
27.500000000000004
10
73.5
20
27.500000000000004
10
73.5
20
-27.500000000000004
10
76.5
20
-27.500000000000004
10
76.5
20
-24.5
0
LWPOLYLINE
5
156
100
AcDbEntity
8
0
100
AcDbPolyline
90
8
70
1
43
0.0
10
104.5
20
-24.5
10
104.5
20
24.5
10
101.5
20
24.500000000000007
10
101.5
20
27.500000000000004
10
98.5
20
27.500000000000004
10
98.5
20
-27.500000000000004
10
101.5
20
-27.500000000000004
10
101.5
20
-24.5
0
LWPOLYLINE
5
157
100
AcDbEntity
8
0
100
AcDbPolyline
90
8
70
1
43
0.0
10
87.833333333333329
20
-24.5
10
87.833333333333329
20
24.5
10
84.833333333333343
20
24.500000000000007
10
84.833333333333343
20
27.500000000000004
10
81.833333333333343
20
27.500000000000004
10
81.833333333333343
20
-27.500000000000004
10
84.833333333333343
20
-27.500000000000004
10
84.833333333333343
20
-24.5
0
LWPOLYLINE
5
158
100
AcDbEntity
8
0
100
AcDbPolyline
90
8
70
1
43
0.0
10
121.16666666666667
20
-24.5
10
121.16666666666667
20
24.5
10
118.16666666666669
20
24.500000000000007
10
118.16666666666669
20
27.500000000000004
10
115.16666666666667
20
27.500000000000004
10
115.16666666666667
20
-27.500000000000004
10
118.16666666666669
20
-27.500000000000004
10
118.16666666666669
20
-24.5
0
LWPOLYLINE
5
159
100
AcDbEntity
8
0
100
AcDbPolyline
90
8
70
1
43
0.0
10
129.5
20
-24.5
10
129.5
20
24.5
10
126.5
20
24.500000000000007
10
126.5
20
27.500000000000004
10
123.5
20
27.500000000000004
10
123.5
20
-27.500000000000004
10
126.5
20
-27.500000000000004
10
126.5
20
-24.5
0
LWPOLYLINE
5
160
100
AcDbEntity
8
0
100
AcDbPolyline
90
8
70
1
43
0.0
10
4.5000000000000009
20
31.500000000000004
10
4.5000000000000009
20
80.5
10
1.5000000000000002
20
80.5
10
1.5000000000000002
20
83.500000000000014
10
-1.5000000000000002
20
83.500000000000014
10
-1.5000000000000002
20
28.5
10
1.5000000000000002
20
28.5
10
1.5000000000000002
20
31.500000000000004
0
LWPOLYLINE
5
161
100
AcDbEntity
8
0
100
AcDbPolyline
90
8
70
1
43
0.0
10
29.5
20
31.500000000000004
10
29.5
20
80.5
10
26.5
20
80.5
10
26.5
20
83.500000000000014
10
23.5
20
83.500000000000014
10
23.5
20
28.5
10
26.5
20
28.5
10
26.5
20
31.500000000000004
0
LWPOLYLINE
5
162
100
AcDbEntity
8
0
100
AcDbPolyline
90
8
70
1
43
0.0
10
12.833333333333334
20
31.500000000000004
10
12.833333333333334
20
80.5
10
9.8333333333333339
20
80.5
10
9.8333333333333339
20
83.500000000000014
10
6.8333333333333339
20
83.500000000000014
10
6.8333333333333339
20
28.5
10
9.8333333333333339
20
28.5
10
9.8333333333333339
20
31.500000000000004
0
LWPOLYLINE
5
163
100
AcDbEntity
8
0
100
AcDbPolyline
90
8
70
1
43
0.0
10
21.166666666666668
20
31.500000000000004
10
21.166666666666668
20
80.5
10
18.166666666666668
20
80.5
10
18.166666666666668
20
83.500000000000014
10
15.166666666666666
20
83.500000000000014
10
15.166666666666666
20
28.5
10
18.166666666666668
20
28.5
10
18.166666666666668
20
31.500000000000004
0
ENDSEC
0
SECTION
2
OBJECTS
0
DICTIONARY
5
C
100
AcDbDictionary
3
ACAD_GROUP
350
D
3
ACAD_MLINESTYLE
350
17
0
DICTIONARY
5
D
100
AcDbDictionary
0
DICTIONARY
5
1A
330
C
100
AcDbDictionary
0
DICTIONARY
5
17
100
AcDbDictionary
0
ENDSEC
0
EOF
