0
SECTION
2
HEADER
9
$INSUNITS
70
4
9
$ACADVER
1
AC1014
9
$HANDSEED
5
FFFF
0
ENDSEC
0
SECTION
2
TABLES
0
TABLE
2
VPORT
5
8
100
AcDbSymbolTable
0
ENDTAB
0
TABLE
2
LTYPE
5
5
100
AcDbSymbolTable
0
LTYPE
5
14
100
AcDbSymbolTableRecord
100
AcDbLinetypeTableRecord
2
BYBLOCK
70
0
0
LTYPE
5
15
100
AcDbSymbolTableRecord
100
AcDbLinetypeTableRecord
2
BYLAYER
70
0
0
ENDTAB
0
TABLE
2
LAYER
5
2
100
AcDbSymbolTable
70
2
0
LAYER
5
50
100
AcDbSymbolTableRecord
100
AcDbLayerTableRecord
2
0
70
0
6
CONTINUOUS
0
ENDTAB
0
TABLE
2
STYLE
5
3
100
AcDbSymbolTable
70
1
0
STYLE
5
11
100
AcDbSymbolTableRecord
100
AcDbTextStyleTableRecord
2
STANDARD
70
0
0
ENDTAB
0
TABLE
2
VIEW
5
6
100
AcDbSymbolTable
70
0
0
ENDTAB
0
TABLE
2
UCS
5
7
100
AcDbSymbolTable
70
0
0
ENDTAB
0
TABLE
2
APPID
5
9
100
AcDbSymbolTable
70
2
0
APPID
5
12
100
AcDbSymbolTableRecord
100
AcDbRegAppTableRecord
2
ACAD
70
0
0
ENDTAB
0
TABLE
2
DIMSTYLE
5
A
100
AcDbSymbolTable
70
1
0
ENDTAB
0
TABLE
2
BLOCK_RECORD
5
1
100
AcDbSymbolTable
70
1
0
BLOCK_RECORD
5
1F
100
AcDbSymbolTableRecord
100
AcDbBlockTableRecord
2
*MODEL_SPACE
0
BLOCK_RECORD
5
1B
100
AcDbSymbolTableRecord
100
AcDbBlockTableRecord
2
*PAPER_SPACE
0
ENDTAB
0
ENDSEC
0
SECTION
2
BLOCKS
0
BLOCK
5
20
100
AcDbEntity
100
AcDbBlockBegin
2
*MODEL_SPACE
0
ENDBLK
5
21
100
AcDbEntity
100
AcDbBlockEnd
0
BLOCK
5
1C
100
AcDbEntity
100
AcDbBlockBegin
2
*PAPER_SPACE
0
ENDBLK
5
1D
100
AcDbEntity
100
AcDbBlockEnd
0
ENDSEC
0
SECTION
2
ENTITIES
0
LWPOLYLINE
5
100
100
AcDbEntity
8
0
100
AcDbPolyline
90
44
70
1
43
0.0
10
-752.97266780125892
20
-3.2769964013059871
10
-752.97266780125892
20
-6.276996401305988
10
-755.97266780125892
20
-6.276996401305988
10
-755.97266780125892
20
-3.2769964013059871
10
-765.95266780125917
20
-3.2769964013059871
10
-765.95266780125917
20
-9.276996401305988
10
-15.952667801258968
20
-9.276996401305988
10
-15.952667801258968
20
-3.2769964013059871
10
-25.952667801258968
20
-3.2769964013059871
10
-25.952667801258968
20
-6.276996401305988
10
-28.952667801259082
20
-6.276996401305988
10
-28.952667801259082
20
-3.2769964013059871
10
-106.732667801259
20
-3.2769964013059871
10
-106.732667801259
20
-6.276996401305988
10
-109.73266780125911
20
-6.276996401305988
10
-109.73266780125911
20
-3.2769964013059871
10
-187.51266780125903
20
-3.2769964013059871
10
-187.51266780125903
20
-6.276996401305988
10
-190.512667801259
20
-6.276996401305988
10
-190.512667801259
20
-3.2769964013059871
10
-268.29266780125909
20
-3.2769964013059871
10
-268.29266780125909
20
-6.276996401305988
10
-271.29266780125903
20
-6.276996401305988
10
-271.29266780125903
20
-3.2769964013059871
10
-349.07266780125906
20
-3.2769964013059871
10
-349.07266780125906
20
-6.276996401305988
10
-352.07266780125906
20
-6.276996401305988
10
-352.07266780125906
20
-3.2769964013059871
10
-429.85266780125903
20
-3.2769964013059871
10
-429.85266780125903
20
-6.276996401305988
10
-432.85266780125903
20
-6.276996401305988
10
-432.85266780125903
20
-3.2769964013059871
10
-510.632667801259
20
-3.2769964013059871
10
-510.632667801259
20
-6.276996401305988
10
-513.632667801259
20
-6.276996401305988
10
-513.632667801259
20
-3.2769964013059871
10
-591.41266780125898
20
-3.2769964013059871
10
-591.41266780125898
20
-6.276996401305988
10
-594.41266780125898
20
-6.276996401305988
10
-594.41266780125898
20
-3.2769964013059871
10
-672.19266780125895
20
-3.2769964013059871
10
-672.19266780125895
20
-6.276996401305988
10
-675.19266780125895
20
-6.276996401305988
10
-675.19266780125895
20
-3.2769964013059871
0
ENDSEC
0
SECTION
2
OBJECTS
0
DICTIONARY
5
C
100
AcDbDictionary
3
ACAD_GROUP
350
D
3
ACAD_MLINESTYLE
350
17
0
DICTIONARY
5
D
100
AcDbDictionary
0
DICTIONARY
5
1A
330
C
100
AcDbDictionary
0
DICTIONARY
5
17
100
AcDbDictionary
0
ENDSEC
0
EOF
